<svg width="100" height="100" viewBox="0 0 100 100" fill="none" xmlns="http://www.w3.org/2000/svg">
<g clip-path="url(#clip0_1_281)">
<path d="M4.16662 4.29199H95.8336V93.4589H4.16662V4.29199Z" fill="#001D26"/>
<path d="M4.16662 4.29198H95.8335V93.4589H4.16662V4.29198ZM0 97.6257H100V0.125366H0V97.6257ZM67.4168 40.1254C64.1251 40.1254 63.0002 41.792 63.0002 43.167C63.0002 44.667 63.7501 45.7087 68.1669 48.0004C74.7085 51.1671 76.7502 54.2087 76.7502 58.6672C76.7502 65.3338 71.6669 68.9171 64.7918 68.9171C61.1668 68.9171 58.0417 68.1671 56.2501 67.1255C55.9585 67.0006 55.9168 66.7923 55.9168 66.4588V60.3338C55.9168 59.9172 56.1251 59.792 56.4169 60.0005C59.0419 61.7089 62.0418 62.4588 64.7918 62.4588C68.0835 62.4588 69.4585 61.0838 69.4585 59.2088C69.4585 57.7088 68.5002 56.3755 64.2917 54.2087C58.375 51.3755 55.9168 48.5005 55.9168 43.7088C55.9168 38.3337 60.1253 33.8754 67.4168 33.8754C71.0002 33.8754 73.5002 34.4172 74.8751 35.0421C75.2084 35.2504 75.2918 35.5837 75.2918 35.8753V41.5836C75.2918 41.9169 75.0834 42.1253 74.6667 42.0002C72.8334 40.8338 70.1251 40.1254 67.4168 40.1254ZM31.5833 45.0838C32.5417 45.1671 33.2918 45.1671 34.9584 45.1671C39.8336 45.1671 44.4168 43.4588 44.4168 36.8339C44.4168 31.5422 41.1251 28.8754 35.5835 28.8754C33.9169 28.8754 32.3334 28.9587 31.5833 29.0004V45.0838ZM24.1668 22.9587C24.1668 22.6671 24.7502 22.4586 25.0834 22.4586C27.7502 22.3336 31.7085 22.2503 35.8334 22.2503C47.3751 22.2503 51.875 28.5836 51.875 36.6671C51.875 47.2503 44.2083 51.7921 34.7918 51.7921C33.2085 51.7921 32.6669 51.7087 31.5417 51.7087V67.7088C31.5417 68.0421 31.4167 68.2087 31.0417 68.2087H24.6668C24.3335 68.2087 24.1667 68.0838 24.1667 67.7088L24.1668 22.9587Z" fill="#31C5F0"/>
</g>
<defs>
<clipPath id="clip0_1_281">
<rect width="100" height="100" fill="white"/>
</clipPath>
</defs>
</svg>
