<svg width="100" height="100" viewBox="0 0 100 100" fill="none" xmlns="http://www.w3.org/2000/svg">
<path d="M4.16719 5.41724H95.8344V94.5844H4.16719V5.41724Z" fill="#261300"/>
<path d="M0 1.25V98.75H100V1.25H0ZM4.16719 5.41719H95.8344V94.5844H4.16719V5.41719ZM34.7078 56.4578L31.4156 68.9578C31.3328 69.2906 31.2078 69.375 30.7906 69.375H24.6656C24.2484 69.375 24.1656 69.25 24.2484 68.75L36.0812 27.3328C36.2891 26.5828 36.4141 25.9156 36.4984 23.875C36.4984 23.5828 36.6234 23.4578 36.8312 23.4578H45.5813C45.8734 23.4578 45.9984 23.5406 46.0812 23.875L59.3312 68.8328C59.4141 69.1656 59.3312 69.375 58.9984 69.375H52.0813C51.7484 69.375 51.5391 69.2922 51.4562 69L47.9984 56.4578H34.7078ZM46.2906 49.7078L41.3328 30.125H41.25C40.375 35 38.1672 43.25 36.4172 49.7078H46.2906ZM65.0406 26.5406C65.0406 23.8734 66.9156 22.2906 69.2906 22.2906C71.8328 22.2906 73.5406 23.9984 73.5406 26.5406C73.5406 29.2906 71.7484 30.7906 69.2078 30.7906C66.7906 30.7906 65.0406 29.2906 65.0406 26.5406ZM65.5406 35.9984C65.5406 35.6656 65.6656 35.4984 66.0406 35.4984H72.5828C72.9156 35.4984 73.0828 35.6234 73.0828 35.9984V68.8734C73.0828 69.2062 73 69.3734 72.5828 69.3734H66.125C65.7078 69.3734 65.5828 69.1656 65.5828 68.8312V36L65.5406 35.9984Z" fill="#FF7C00"/>
</svg>
