<svg width="100" height="100" viewBox="0 0 100 100" fill="none" xmlns="http://www.w3.org/2000/svg">
<g clip-path="url(#clip0_1_260)">
<path d="M98.1125 45.5469L54.4532 1.88748C53.8553 1.28937 53.1455 0.814898 52.3643 0.491185C51.583 0.167471 50.7457 0.000854492 49.9 0.000854492C49.0544 0.000854492 48.217 0.167471 47.4358 0.491185C46.6545 0.814898 45.9447 1.28937 45.3469 1.88748L36.2844 10.95L47.7844 22.45C50.4594 21.5125 53.5219 22.1531 55.6532 24.2844C56.6677 25.3007 57.3759 26.5819 57.697 27.9816C58.018 29.3813 57.9389 30.8431 57.4688 32.2L68.5532 43.2844C71.2344 42.3594 74.3282 42.9562 76.4688 45.1031C77.1804 45.8149 77.7448 46.6599 78.1299 47.5898C78.5149 48.5198 78.713 49.5165 78.7128 50.523C78.7127 51.5295 78.5143 52.5261 78.129 53.4559C77.7437 54.3857 77.179 55.2306 76.4672 55.9422C75.7554 56.6538 74.9104 57.2182 73.9805 57.6032C73.0505 57.9883 72.0539 58.1864 71.0474 58.1862C70.0409 58.1861 69.0443 57.9877 68.1144 57.6024C67.1846 57.2171 66.3398 56.6524 65.6282 55.9406C63.3782 53.6906 62.8219 50.3781 63.9594 47.6062L53.6219 37.2687V64.4719C54.3723 64.8432 55.0581 65.3328 55.6532 65.9219C56.3648 66.6335 56.9292 67.4782 57.3143 68.408C57.6995 69.3377 57.8977 70.3343 57.8977 71.3406C57.8977 72.347 57.6995 73.3435 57.3143 74.2732C56.9292 75.203 56.3648 76.0478 55.6532 76.7594C54.9416 77.471 54.0968 78.0354 53.167 78.4205C52.2373 78.8057 51.2408 79.0039 50.2344 79.0039C49.2281 79.0039 48.2316 78.8057 47.3018 78.4205C46.372 78.0354 45.5273 77.471 44.8157 76.7594C44.1032 76.0482 43.538 75.2036 43.1524 74.2738C42.7667 73.344 42.5682 72.3472 42.5682 71.3406C42.5682 70.334 42.7667 69.3373 43.1524 68.4074C43.538 67.4776 44.1032 66.633 44.8157 65.9219C45.5563 65.1843 46.3782 64.625 47.325 64.25V36.7937C46.4125 36.4187 45.5563 35.8656 44.8157 35.1219C43.7396 34.0471 43.008 32.6763 42.7142 31.1842C42.4203 29.692 42.5775 28.1462 43.1657 26.7437L31.8219 15.4062L1.88441 45.3125C1.28582 45.9104 0.810959 46.6204 0.486969 47.4019C0.162979 48.1834 -0.00378418 49.0211 -0.00378418 49.8672C-0.00378418 50.7132 0.162979 51.5509 0.486969 52.3324C0.810959 53.114 1.28582 53.824 1.88441 54.4219L45.5469 98.0781C46.1447 98.6762 46.8545 99.1507 47.6358 99.4744C48.417 99.7981 49.2544 99.9647 50.1 99.9647C50.9457 99.9647 51.783 99.7981 52.5643 99.4744C53.3455 99.1507 54.0553 98.6762 54.6532 98.0781L98.1125 54.6875C98.7111 54.0896 99.186 53.3796 99.51 52.5981C99.834 51.8165 100.001 50.9788 100.001 50.1328C100.001 49.2868 99.834 48.449 99.51 47.6675C99.186 46.886 98.7111 46.176 98.1125 45.5781" fill="#F03C2E"/>
</g>
<defs>
<clipPath id="clip0_1_260">
<rect width="100" height="100" fill="white"/>
</clipPath>
</defs>
</svg>
